<svg xmlns="http://www.w3.org/2000/svg" viewBox="0 0 320 220" fill="none">
  <defs>
    <linearGradient id="f1" x1="30" y1="18" x2="280" y2="200" gradientUnits="userSpaceOnUse">
      <stop stop-color="#0A3C8F"/>
      <stop offset="1" stop-color="#3FA1FF"/>
    </linearGradient>
  </defs>
  <rect x="34" y="28" width="170" height="160" rx="28" fill="url(#f1)"/>
  <rect x="58" y="52" width="122" height="112" rx="20" fill="#fff" opacity=".95"/>
  <rect x="74" y="70" width="90" height="12" rx="6" fill="#DDEAFD"/>
  <rect x="74" y="94" width="48" height="48" rx="16" fill="#1877F2"/>
  <path d="M104 140v-18.5h6.3l.8-7h-7.1v-4.4c0-2 .5-3.3 3.5-3.3h3.8V101c-.7-.1-2.8-.2-5.3-.2-5.3 0-9 3.1-9 9v4.7h-5.8v7h5.8V140h7Z" fill="#fff"/>
  <rect x="130" y="96" width="34" height="8" rx="4" fill="#DDEAFD"/>
  <rect x="130" y="112" width="28" height="8" rx="4" fill="#DDEAFD"/>
  <rect x="130" y="128" width="22" height="8" rx="4" fill="#DDEAFD"/>
  <g opacity=".95">
    <rect x="214" y="50" width="72" height="46" rx="16" fill="#EEF6FF"/>
    <path d="M228 66h40v6h-40zm0 14h28v6h-28z" fill="#1877F2" opacity=".72"/>
    <rect x="194" y="126" width="96" height="48" rx="18" fill="#fff" opacity=".92"/>
    <circle cx="220" cy="150" r="10" fill="#7CB7FF"/>
    <path d="M240 144h34v6h-34zm0 12h24v6h-24z" fill="#0B3C8D" opacity=".74"/>
  </g>
  <circle cx="246" cy="36" r="7" fill="#9DD0FF" opacity=".9"/>
  <circle cx="280" cy="116" r="5" fill="#D4EAFF" opacity=".92"/>
</svg>
